<svg xmlns="http://www.w3.org/2000/svg" width="16" height="16" fill="none" viewBox="0 0 16 16"><path fill="#40B6E0" fill-opacity=".8" fill-rule="evenodd" d="M4.2 4.9L3 4L0 8L3 12L4.2 11.099L1.875 8L4.2 4.9Z" clip-rule="evenodd"/><path fill="#62B543" fill-rule="evenodd" d="M10 16L16 12.5L10 9V16Z" clip-rule="evenodd"/><path fill="#40B6E0" fill-opacity=".8" fill-rule="evenodd" d="M12.952 9.563L14.257 10.325L16 8.001L13 4L11.8 4.901L14.125 8.001L12.952 9.563Z" clip-rule="evenodd"/><path fill="#F4AF3D" fill-opacity=".7" fill-rule="evenodd" d="M9 9C9 8.642 9.191 8.312 9.502 8.133C9.656 8.044 9.828 8 10 8C10.174 8 10.348 8.046 10.504 8.136L10.531 8.151L11 7.5L7.2 7L12 1H7.2L4 8.5L7.188 9L4.8 15H5.6L9 10.277V9Z" clip-rule="evenodd"/></svg>