<svg xmlns="http://www.w3.org/2000/svg" width="13" height="13" fill="none" viewBox="0 0 13 13"><rect width="1.5" height="3" x="1" y="1" fill="#6E6E6E"/><rect width="1.5" height="3" x="10.5" y="1" fill="#6E6E6E"/><rect width="9" height="1.5" x="2" y="1" fill="#6E6E6E"/><rect width="1.5" height="3" x="12" y="12" fill="#6E6E6E" transform="rotate(-180 12 12)"/><rect width="1.5" height="3" x="2.5" y="12" fill="#6E6E6E" transform="rotate(-180 2.5 12)"/><rect width="9" height="1.5" x="11" y="12" fill="#6E6E6E" transform="rotate(-180 11 12)"/><path fill="#6E6E6E" d="M3.5 5L6.5 3.5L9.5 5L6.5 6.5L3.5 5Z"/><path fill="#6E6E6E" fill-rule="evenodd" d="M4.25 5.375L3.5 5V9H9.5V5L8.75 5.375V6.125L6.5 7.25L4.25 6.125V5.375Z" clip-rule="evenodd"/></svg>