<svg xmlns="http://www.w3.org/2000/svg" width="16" height="16" fill="none" viewBox="0 0 16 16"><path fill="#40B6E0" fill-opacity=".8" fill-rule="evenodd" d="M4.2 4.9L3 4L0 8L3 12L4.2 11.099L1.875 8L4.2 4.9Z" clip-rule="evenodd"/><path fill="#F4AF3D" fill-opacity=".7" fill-rule="evenodd" d="M11 7.5L7.2 7L12 1H7.2L4 8.5L7.188 9L4.8 15H5.6L8.10765 11.5171C8.37834 10.3021 9.14032 9.27223 10.1743 8.6468L11 7.5Z" clip-rule="evenodd"/><path fill="#40B6E0" fill-opacity=".8" fill-rule="evenodd" d="M15.28 8.96113L16 8.001L13 4L11.8 4.901L14.125 8.001L13.9472 8.23778C14.4343 8.40312 14.8839 8.6496 15.28 8.96113Z" clip-rule="evenodd"/><path fill="#E05555" fill-rule="evenodd" d="M12.5 16C14.433 16 16 14.433 16 12.5C16 10.567 14.433 9 12.5 9C10.567 9 9 10.567 9 12.5C9 14.433 10.567 16 12.5 16ZM10.7322 11.4393L11.4393 10.7322L12.5 11.7929L13.5607 10.7323L14.2678 11.4394L13.2071 12.5L14.2678 13.5607L13.5607 14.2678L12.5 13.2071L11.4393 14.2678L10.7322 13.5607L11.7929 12.5L10.7322 11.4393Z" clip-rule="evenodd"/></svg>