<svg xmlns="http://www.w3.org/2000/svg" width="16" height="16" fill="none" viewBox="0 0 16 16"><path fill="#62B543" fill-opacity=".7" d="M8 10H9V11H8V10ZM3 8H13V9H3V8Z"/><path fill="#9AA7B0" fill-opacity=".8" d="M3 6H13V7H3V6Z"/><path fill="#9AA7B0" fill-opacity=".8" fill-rule="evenodd" d="M13.75 2H2.25C1.91848 2 1.60054 2.1317 1.36612 2.36612C1.1317 2.60054 1 2.91848 1 3.25V9H2V5H14V9H15V3.25C15 2.91848 14.8683 2.60054 14.6339 2.36612C14.3995 2.1317 14.0815 2 13.75 2Z" clip-rule="evenodd"/><path fill="#9AA7B0" d="M10 10H16V16H10V10Z"/><path fill="#9AA7B0" d="M6.5 16H5.5V15H6V11H5.5V10H6.5L7 10.5V15.5L6.5 16Z"/><path fill="#9AA7B0" d="M1.5 16H0.5L0 15.5V10.5L0.5 10H1.5V11H1V15H1.5V16Z"/></svg>