<svg xmlns="http://www.w3.org/2000/svg" width="16" height="17" fill="none" viewBox="0 0 16 17"><path fill="#9AA7B0" fill-opacity=".8" fill-rule="evenodd" d="M5 7.00391V5.00391H2V13.0039H5V11.0039H2V10.0039H5V8.00391H2V7.00391H5ZM6 7.00391H10V5.00391H6V7.00391ZM11 7.00391H14V5.00391H11V7.00391ZM14 8.00391H11V10.0039H14V8.00391ZM10 8.00391H6V10.0039H10V8.00391ZM14 11.0039H11V13.0039H14V11.0039ZM10 11.0039H6V13.0039H10V11.0039ZM1 14.0039V2.00391H15V14.0039H1Z" clip-rule="evenodd"/><rect width="3" height="2" x="11" y="11.004" fill="#EFBF6F"/><rect width="3" height="2" x="11" y="8.004" fill="#EFBF6F"/><rect width="4" height="2" x="6" y="11.004" fill="#EFBF6F"/><rect width="4" height="2" x="6" y="8.004" fill="#EFBF6F"/><rect width="3" height="2" x="2" y="11.004" fill="#EFBF6F"/></svg>