<svg xmlns="http://www.w3.org/2000/svg" width="16" height="16" fill="none" viewBox="0 0 16 16"><path fill="#9AA7B0" fill-opacity=".8" fill-rule="evenodd" d="M15 1V2V3V5H14H13V3H3L3 5H2H1V3V2V1H15ZM8.03943 13.0983C8.13201 13.7952 8.38409 14.4417 8.75778 15H4.23605L8.03943 13.0983Z" clip-rule="evenodd"/><rect width="2" height="1" x="7" y="8" fill="#9AA7B0" opacity=".8"/><circle cx="12.5" cy="12.5" r="3" stroke="#E05555"/><rect width="1" height="5" x="10.379" y="11.086" fill="#E05555" transform="rotate(-45 10.3787 11.0858)"/><path fill="#40B6E0" fill-rule="evenodd" d="M10 6H16V9.67133C15.5426 9.10609 14.9511 8.65387 14.2738 8.3631L15 8V7L13 8L11 7V8L11.3152 8.1576C10.8411 8.28666 10.3981 8.4913 10 8.75777V6Z" clip-rule="evenodd" opacity=".7"/><path fill="#9AA7B0" d="M0 16L7 12.5L0 9V11.625L5.25 12.5L0 13.375V16Z" opacity=".8"/><path fill="#40B6E0" fill-rule="evenodd" d="M0 6H6V10.882L0 7.88196V6ZM1 7L3 8L5 7V8L3 9L1 8V7Z" clip-rule="evenodd" opacity=".7"/></svg>