<svg xmlns="http://www.w3.org/2000/svg" width="16" height="16" fill="none" viewBox="0 0 16 16"><rect width="2" height="2" x="4" y="4" fill="#62B543" opacity=".7"/><rect width="2" height="2" x="4" y="7" fill="#62B543" opacity=".7"/><rect width="2" height="2" x="7" y="5.5" fill="#62B543" opacity=".7"/><rect width="2" height="2" x="10" y="7" fill="#62B543" opacity=".7"/><rect width="2" height="2" x="7" y="8.5" fill="#62B543" opacity=".7"/><rect width="2" height="2" x="4" y="10" fill="#62B543" opacity=".7"/><path fill="#62B543" d="M16 13C16 14.6569 14.6569 16 13 16C11.3431 16 10 14.6569 10 13C10 11.3431 11.3431 10 13 10C14.6569 10 16 11.3431 16 13Z"/><path fill="#9AA7B0" fill-opacity=".8" fill-rule="evenodd" d="M15 2V1H1V2V3V5H2H3L3 3H13V5H14H15V3V2ZM9.53513 15C9.19479 14.4117 9 13.7286 9 13L3 13V12H2H1V13V14V15H9.53513Z" clip-rule="evenodd"/></svg>