<svg xmlns="http://www.w3.org/2000/svg" width="16" height="16" fill="none" viewBox="0 0 16 16"><rect width="2" height="2" x="4" y="4" fill="#9AA7B0" opacity=".7"/><rect width="2" height="2" x="4" y="7" fill="#9AA7B0" opacity=".7"/><rect width="2" height="2" x="7" y="5.5" fill="#9AA7B0" opacity=".7"/><path fill="#9AA7B0" fill-rule="evenodd" d="M10 7H12V8.02746C11.2656 8.10865 10.5844 8.36658 10 8.75777V7ZM9 9.67133V8.5H7V10.5H8.46776C8.61497 10.2038 8.79386 9.92608 9 9.67133Z" clip-rule="evenodd" opacity=".7"/><rect width="2" height="2" x="4" y="10" fill="#9AA7B0" opacity=".7"/><path fill="#9AA7B0" fill-opacity=".8" fill-rule="evenodd" d="M15 2V1H1V2V3V5H2H3V3H13L13 5H14H15L15 3V2ZM8.75778 15C8.36658 14.4156 8.10865 13.7344 8.02746 13L3 13L3 12H2H1V13V14V15H8.75778Z" clip-rule="evenodd"/><circle cx="12.5" cy="12.5" r="3" stroke="#E05555"/><rect width="1" height="5" x="10.379" y="11.086" fill="#E05555" transform="rotate(-45 10.3787 11.0858)"/></svg>